<?xml version="1.0" encoding="utf-8"?>
<!-- Generator: Adobe Illustrator 20.0.0, SVG Export Plug-In . SVG Version: 6.00 Build 0)  -->
<svg version="1.1" id="Layer_1" xmlns="http://www.w3.org/2000/svg" xmlns:xlink="http://www.w3.org/1999/xlink" x="0px" y="0px"
	 viewBox="0 0 1920 1920" style="enable-background:new 0 0 1920 1920;" xml:space="preserve">
<style type="text/css">
	.st0{opacity:0.17;clip-path:url(#XMLID_7_);}
	.st1{fill:#4848FF;}
	.st2{opacity:0.33;clip-path:url(#XMLID_7_);fill:#A03EFF;}
	.st3{opacity:0.17;clip-path:url(#XMLID_7_);fill:#1D00ED;}
	.st4{clip-path:url(#XMLID_7_);}
	.st5{clip-path:url(#XMLID_8_);fill:#6697ED;}
	.st6{fill:#FFFFFF;}
	.st7{fill:#999999;}
	.st8{clip-path:url(#XMLID_9_);fill:#98B8FF;}
	.st9{opacity:0.81;clip-path:url(#XMLID_7_);fill:#F77E49;}
	.st10{opacity:0.54;clip-path:url(#XMLID_7_);fill:#999999;}
	.st11{clip-path:url(#XMLID_7_);fill:#FF4D5E;}
	.st12{opacity:0.52;clip-path:url(#XMLID_7_);fill:#FFFFFF;}
	.st13{clip-path:url(#XMLID_10_);fill:#FFFFFF;}
	.st14{fill:#EEEBD5;}
	.st15{fill:#CECECE;}
	.st16{fill:#AA7939;}
	.st17{fill:#FFB680;}
	.st18{fill:#EA9E6A;}
	.st19{fill:#FFD6BB;}
	.st20{clip-path:url(#XMLID_7_);fill:#E04C5D;}
	.st21{clip-path:url(#XMLID_7_);fill:#383838;}
	.st22{opacity:0.51;clip-path:url(#XMLID_11_);}
	.st23{opacity:0.56;clip-path:url(#XMLID_7_);fill:#FFFFFF;}
	.st24{opacity:0.29;clip-path:url(#XMLID_7_);fill:#FFFFFF;}
</style>
<g>
	<defs>
		<rect id="XMLID_4_" width="1921.3" height="1920"/>
	</defs>
	<use xlink:href="#XMLID_4_"  style="overflow:visible;fill:#034D89;"/>
	<clipPath id="XMLID_7_">
		<use xlink:href="#XMLID_4_"  style="overflow:visible;"/>
	</clipPath>
	<g class="st0">
		<path class="st1" d="M820.2-442.1C645.7-313.1,543.3-99,530,117.5s57,433.6,175.7,615.2c115.9,177.1,280.9,332.8,324.9,539.9
			c32.5,152.9-7.8,314.1-80.6,452.5s-176.3,257.8-278.8,375.8c518.5-39.7,1038.1-63.8,1558.1-72.1
			c-52.3-128.5-61.6-270.2-61.6-408.9c0.1-575.3,148.8-1138.8,290.9-1696.3c9.1-35.9,18.2-74.3,5.6-109.1
			c-28.7-79.5-138.1-82.8-222.1-73.4c-519.2,58.1-1046.3,44.2-1561.7-41.4c-43.2-7.2-94.3-21.7-106.6-63.7"/>
	</g>
	<circle class="st2" cx="97.2" cy="1708.8" r="652.7"/>
	<circle class="st3" cx="1339" cy="250.3" r="652.7"/>
	<g class="st4">
		<defs>
			<path id="XMLID_2_" d="M1333.7,806.3H676.3v-481c0-10.6,8.6-19.3,19.3-19.3h618.9c10.6,0,19.3,8.6,19.3,19.3V806.3z"/>
		</defs>
		<use xlink:href="#XMLID_2_"  style="overflow:visible;fill:#EADCE0;"/>
		<clipPath id="XMLID_8_">
			<use xlink:href="#XMLID_2_"  style="overflow:visible;"/>
		</clipPath>
		<rect x="613.8" y="216.3" class="st5" width="808.9" height="145.1"/>
	</g>
	<g class="st4">
		<g>
			<path class="st6" d="M885.6,1319.7c0.8-18.3-7.8-34.4-19-48.3c-9.9-12.3-21.4-23.6-34.1-33.1c-20-14.9-43.5-23.5-68.4-24.4
				c-24.3-0.8-48.3,5-71.4,11.8c-26,7.7-51.6,16.7-78,23.3c-59.3,14.8-124.9,15.6-178.4-17.5c-26.7-16.5-48.8-40.3-62-68.9
				c-15.6-33.9-16.8-72.8-6.9-108.5c10.3-36.9,31.6-69.8,61-94.3c29.7-24.7,66.1-40.3,102.9-51.1c38.3-11.2,81.6-15.8,117.7,4.8
				c29.5,16.8,50.5,46.5,57,79.8c7.2,36.8-3.3,76.7-25.4,106.7c-22.3,30.2-57.7,47.9-94.5,52.4c-62.4,7.7-124.9-24.1-152.9-80.8
				c-18-36.4-20.6-78.8-16.4-118.7c4-38.3,14.4-76.3,31.3-110.9c15.4-31.5,36.5-60.9,64.1-82.9c28.7-22.8,64.8-36.7,101.6-35.7
				c17.5,0.4,34.9,4.3,51,11.3c4.4,1.9,8.2-4.5,3.8-6.5c-33.7-14.7-71.4-16-106.3-4.6c-35.4,11.6-65.7,34.9-88.8,63.9
				c-23.5,29.5-40.3,64-51.1,100c-11.9,39.4-17.7,81.9-13.5,123c3.8,37,16.8,72.8,42.2,100.5c21.2,23.1,49.7,39.2,80.3,46.1
				c32.4,7.3,67.1,4.5,97.7-8.3c35.2-14.7,62-42.7,76-78c14-35.3,14.5-75.7-2.3-110.1c-14.5-29.8-41.4-54-73.3-63.6
				c-41.9-12.6-86.7-1.5-126.6,13.2c-36.7,13.5-71.6,33-98.5,61.9C353.8,1027,336,1113.7,375,1180c16.3,27.7,41.1,50,69.6,64.8
				c28.8,14.9,60.8,21.2,93.1,21.6c31.1,0.4,61.8-5.3,91.7-13.5c26.9-7.5,53.3-17.1,80.3-24.1c23.8-6.2,49-10.2,73.5-5.1
				c28.8,6,52.5,24,71.8,45.5c12.7,14.2,24.1,30.7,23.2,50.5C877.9,1324.5,885.4,1324.5,885.6,1319.7L885.6,1319.7z"/>
		</g>
	</g>
	<g class="st4">
		<path class="st7" d="M1449.3,1425.7c3.9,20.1-9.4,39.8-29.5,43.7l-741.5,144c-20.1,3.9-39.8-9.4-43.7-29.5l-46.2-238.1
			c-3.9-20.1,9.4-39.8,29.5-43.7l741.5-144c20.1-3.9,39.8,9.4,43.7,29.5L1449.3,1425.7z"/>
		<g>
			<g>
				<path class="st6" d="M664.1,1335.4c0.5,2.8-1.3,5.5-4,6l-35.2,6.8c-2.8,0.5-5.5-1.3-6-4l-2-10.1c-0.5-2.8,1.3-5.5,4-6l35.2-6.8
					c2.8-0.5,5.5,1.3,6,4L664.1,1335.4z"/>
			</g>
			<g>
				<path class="st6" d="M718.7,1324.8c0.5,2.8-1.3,5.5-4,6l-35.2,6.8c-2.8,0.5-5.5-1.3-6-4l-2-10.1c-0.5-2.8,1.3-5.5,4-6l35.2-6.8
					c2.8-0.5,5.5,1.3,6,4L718.7,1324.8z"/>
			</g>
			<g>
				<path class="st6" d="M773.4,1314.2c0.5,2.8-1.3,5.5-4,6l-35.2,6.8c-2.8,0.5-5.5-1.3-6-4l-2-10.1c-0.5-2.8,1.3-5.5,4-6l35.2-6.8
					c2.8-0.5,5.5,1.3,6,4L773.4,1314.2z"/>
			</g>
			<g>
				<path class="st6" d="M828,1303.6c0.5,2.8-1.3,5.5-4,6l-35.2,6.8c-2.8,0.5-5.5-1.3-6-4l-2-10.1c-0.5-2.8,1.3-5.5,4-6l35.2-6.8
					c2.8-0.5,5.5,1.3,6,4L828,1303.6z"/>
			</g>
			<g>
				<path class="st6" d="M882.6,1293c0.5,2.8-1.3,5.5-4,6l-35.2,6.8c-2.8,0.5-5.5-1.3-6-4l-2-10.1c-0.5-2.8,1.3-5.5,4-6l35.2-6.8
					c2.8-0.5,5.5,1.3,6,4L882.6,1293z"/>
			</g>
			<g>
				<path class="st6" d="M937.2,1282.4c0.5,2.8-1.3,5.5-4,6l-35.2,6.8c-2.8,0.5-5.5-1.3-6-4l-2-10.1c-0.5-2.8,1.3-5.5,4-6l35.2-6.8
					c2.8-0.5,5.5,1.3,6,4L937.2,1282.4z"/>
			</g>
			<g>
				<path class="st6" d="M991.8,1271.8c0.5,2.8-1.3,5.5-4,6l-35.2,6.8c-2.8,0.5-5.5-1.3-6-4l-2-10.1c-0.5-2.8,1.3-5.5,4-6l35.2-6.8
					c2.8-0.5,5.5,1.3,6,4L991.8,1271.8z"/>
			</g>
			<g>
				<path class="st6" d="M1046.4,1261.2c0.5,2.8-1.3,5.5-4,6l-35.2,6.8c-2.8,0.5-5.5-1.3-6-4l-2-10.1c-0.5-2.8,1.3-5.5,4-6l35.2-6.8
					c2.8-0.5,5.5,1.3,6,4L1046.4,1261.2z"/>
			</g>
			<g>
				<path class="st6" d="M1101.1,1250.6c0.5,2.8-1.3,5.5-4,6l-35.2,6.8c-2.8,0.5-5.5-1.3-6-4l-2-10.1c-0.5-2.8,1.3-5.5,4-6l35.2-6.8
					c2.8-0.5,5.5,1.3,6,4L1101.1,1250.6z"/>
			</g>
			<g>
				<path class="st6" d="M1155.7,1240c0.5,2.8-1.3,5.5-4,6l-35.2,6.8c-2.8,0.5-5.5-1.3-6-4l-2-10.1c-0.5-2.8,1.3-5.5,4-6l35.2-6.8
					c2.8-0.5,5.5,1.3,6,4L1155.7,1240z"/>
			</g>
			<g>
				<path class="st6" d="M1210.3,1229.4c0.5,2.8-1.3,5.5-4,6l-35.2,6.8c-2.8,0.5-5.5-1.3-6-4l-2-10.1c-0.5-2.8,1.3-5.5,4-6l35.2-6.8
					c2.8-0.5,5.5,1.3,6,4L1210.3,1229.4z"/>
			</g>
			<g>
				<path class="st6" d="M1264.9,1218.8c0.5,2.8-1.3,5.5-4,6l-35.2,6.8c-2.8,0.5-5.5-1.3-6-4l-2-10.1c-0.5-2.8,1.3-5.5,4-6l35.2-6.8
					c2.8-0.5,5.5,1.3,6,4L1264.9,1218.8z"/>
			</g>
			<g>
				<path class="st6" d="M1319.5,1208.2c0.5,2.8-1.3,5.5-4,6l-35.2,6.8c-2.8,0.5-5.5-1.3-6-4l-2-10.1c-0.5-2.8,1.3-5.5,4-6l35.2-6.8
					c2.8-0.5,5.5,1.3,6,4L1319.5,1208.2z"/>
			</g>
			<g>
				<path class="st6" d="M1374.2,1197.6c0.5,2.8-1.3,5.5-4,6l-35.2,6.8c-2.8,0.5-5.5-1.3-6-4l-2-10.1c-0.5-2.8,1.3-5.5,4-6l35.2-6.8
					c2.8-0.5,5.5,1.3,6,4L1374.2,1197.6z"/>
			</g>
			<g>
				<path class="st6" d="M673.6,1384.4c0.5,2.8-1.3,5.5-4,6l-35.2,6.8c-2.8,0.5-5.5-1.3-6-4l-4.9-25.1c-0.5-2.8,1.3-5.5,4-6
					l35.2-6.8c2.8-0.5,5.5,1.3,6,4L673.6,1384.4z"/>
			</g>
			<g>
				<path class="st6" d="M728.2,1373.8c0.5,2.8-1.3,5.5-4,6l-35.2,6.8c-2.8,0.5-5.5-1.3-6-4l-4.9-25.1c-0.5-2.8,1.3-5.5,4-6
					l35.2-6.8c2.8-0.5,5.5,1.3,6,4L728.2,1373.8z"/>
			</g>
			<g>
				<path class="st6" d="M782.9,1363.2c0.5,2.8-1.3,5.5-4,6l-35.2,6.8c-2.8,0.5-5.5-1.3-6-4l-4.9-25.1c-0.5-2.8,1.3-5.5,4-6
					l35.2-6.8c2.8-0.5,5.5,1.3,6,4L782.9,1363.2z"/>
			</g>
			<g>
				<path class="st6" d="M837.5,1352.6c0.5,2.8-1.3,5.5-4,6l-35.2,6.8c-2.8,0.5-5.5-1.3-6-4l-4.9-25.1c-0.5-2.8,1.3-5.5,4-6
					l35.2-6.8c2.8-0.5,5.5,1.3,6,4L837.5,1352.6z"/>
			</g>
			<g>
				<path class="st6" d="M892.1,1342c0.5,2.8-1.3,5.5-4,6l-35.2,6.8c-2.8,0.5-5.5-1.3-6-4l-4.9-25.1c-0.5-2.8,1.3-5.5,4-6l35.2-6.8
					c2.8-0.5,5.5,1.3,6,4L892.1,1342z"/>
			</g>
			<g>
				<path class="st6" d="M946.7,1331.4c0.5,2.8-1.3,5.5-4,6l-35.2,6.8c-2.8,0.5-5.5-1.3-6-4l-4.9-25.1c-0.5-2.8,1.3-5.5,4-6
					l35.2-6.8c2.8-0.5,5.5,1.3,6,4L946.7,1331.4z"/>
			</g>
			<g>
				<path class="st6" d="M1001.3,1320.8c0.5,2.8-1.3,5.5-4,6l-35.2,6.8c-2.8,0.5-5.5-1.3-6-4l-4.9-25.1c-0.5-2.8,1.3-5.5,4-6
					l35.2-6.8c2.8-0.5,5.5,1.3,6,4L1001.3,1320.8z"/>
			</g>
			<g>
				<path class="st6" d="M1056,1310.2c0.5,2.8-1.3,5.5-4,6l-35.2,6.8c-2.8,0.5-5.5-1.3-6-4l-4.9-25.1c-0.5-2.8,1.3-5.5,4-6l35.2-6.8
					c2.8-0.5,5.5,1.3,6,4L1056,1310.2z"/>
			</g>
			<g>
				<path class="st6" d="M1110.6,1299.6c0.5,2.8-1.3,5.5-4,6l-35.2,6.8c-2.8,0.5-5.5-1.3-6-4l-4.9-25.1c-0.5-2.8,1.3-5.5,4-6
					l35.2-6.8c2.8-0.5,5.5,1.3,6,4L1110.6,1299.6z"/>
			</g>
			<g>
				<path class="st6" d="M1165.2,1289c0.5,2.8-1.3,5.5-4,6l-35.2,6.8c-2.8,0.5-5.5-1.3-6-4l-4.9-25.1c-0.5-2.8,1.3-5.5,4-6l35.2-6.8
					c2.8-0.5,5.5,1.3,6,4L1165.2,1289z"/>
			</g>
			<g>
				<path class="st6" d="M1219.8,1278.4c0.5,2.8-1.3,5.5-4,6l-35.2,6.8c-2.8,0.5-5.5-1.3-6-4l-4.9-25.1c-0.5-2.8,1.3-5.5,4-6
					l35.2-6.8c2.8-0.5,5.5,1.3,6,4L1219.8,1278.4z"/>
			</g>
			<g>
				<path class="st6" d="M1274.4,1267.8c0.5,2.8-1.3,5.5-4,6l-35.2,6.8c-2.8,0.5-5.5-1.3-6-4l-4.9-25.1c-0.5-2.8,1.3-5.5,4-6
					l35.2-6.8c2.8-0.5,5.5,1.3,6,4L1274.4,1267.8z"/>
			</g>
			<g>
				<path class="st6" d="M1383.7,1246.6c0.5,2.8-1.3,5.5-4,6l-89.8,17.4c-2.8,0.5-5.5-1.3-6-4l-4.9-25.1c-0.5-2.8,1.3-5.5,4-6
					l89.8-17.4c2.8-0.5,5.5,1.3,6,4L1383.7,1246.6z"/>
			</g>
			<g>
				<path class="st6" d="M731.3,1422.7c0.5,2.8-1.3,5.5-4,6l-83.5,16.2c-2.8,0.5-5.5-1.3-6-4l-4.9-25.1c-0.5-2.8,1.3-5.5,4-6
					l83.5-16.2c2.8-0.5,5.5,1.3,6,4L731.3,1422.7z"/>
			</g>
			<g>
				<path class="st6" d="M792.1,1410.9c0.5,2.8-1.3,5.5-4,6l-35.2,6.8c-2.8,0.5-5.5-1.3-6-4l-4.9-25.1c-0.5-2.8,1.3-5.5,4-6
					l35.2-6.8c2.8-0.5,5.5,1.3,6,4L792.1,1410.9z"/>
			</g>
			<g>
				<path class="st6" d="M846.7,1400.3c0.5,2.8-1.3,5.5-4,6l-35.2,6.8c-2.8,0.5-5.5-1.3-6-4l-4.9-25.1c-0.5-2.8,1.3-5.5,4-6
					l35.2-6.8c2.8-0.5,5.5,1.3,6,4L846.7,1400.3z"/>
			</g>
			<g>
				<path class="st6" d="M901.4,1389.7c0.5,2.8-1.3,5.5-4,6l-35.2,6.8c-2.8,0.5-5.5-1.3-6-4l-4.9-25.1c-0.5-2.8,1.3-5.5,4-6
					l35.2-6.8c2.8-0.5,5.5,1.3,6,4L901.4,1389.7z"/>
			</g>
			<g>
				<path class="st6" d="M956,1379.1c0.5,2.8-1.3,5.5-4,6l-35.2,6.8c-2.8,0.5-5.5-1.3-6-4l-4.9-25.1c-0.5-2.8,1.3-5.5,4-6l35.2-6.8
					c2.8-0.5,5.5,1.3,6,4L956,1379.1z"/>
			</g>
			<g>
				<path class="st6" d="M1010.6,1368.5c0.5,2.8-1.3,5.5-4,6l-35.2,6.8c-2.8,0.5-5.5-1.3-6-4l-4.9-25.1c-0.5-2.8,1.3-5.5,4-6
					l35.2-6.8c2.8-0.5,5.5,1.3,6,4L1010.6,1368.5z"/>
			</g>
			<g>
				<path class="st6" d="M1065.2,1357.9c0.5,2.8-1.3,5.5-4,6l-35.2,6.8c-2.8,0.5-5.5-1.3-6-4l-4.9-25.1c-0.5-2.8,1.3-5.5,4-6
					l35.2-6.8c2.8-0.5,5.5,1.3,6,4L1065.2,1357.9z"/>
			</g>
			<g>
				<path class="st6" d="M1119.8,1347.3c0.5,2.8-1.3,5.5-4,6l-35.2,6.8c-2.8,0.5-5.5-1.3-6-4l-4.9-25.1c-0.5-2.8,1.3-5.5,4-6
					l35.2-6.8c2.8-0.5,5.5,1.3,6,4L1119.8,1347.3z"/>
			</g>
			<g>
				<path class="st6" d="M1174.5,1336.7c0.5,2.8-1.3,5.5-4,6l-35.2,6.8c-2.8,0.5-5.5-1.3-6-4l-4.9-25.1c-0.5-2.8,1.3-5.5,4-6
					l35.2-6.8c2.8-0.5,5.5,1.3,6,4L1174.5,1336.7z"/>
			</g>
			<g>
				<path class="st6" d="M1229.1,1326.1c0.5,2.8-1.3,5.5-4,6l-35.2,6.8c-2.8,0.5-5.5-1.3-6-4l-4.9-25.1c-0.5-2.8,1.3-5.5,4-6
					l35.2-6.8c2.8-0.5,5.5,1.3,6,4L1229.1,1326.1z"/>
			</g>
			<g>
				<path class="st6" d="M1283.7,1315.5c0.5,2.8-1.3,5.5-4,6l-35.2,6.8c-2.8,0.5-5.5-1.3-6-4l-4.9-25.1c-0.5-2.8,1.3-5.5,4-6
					l35.2-6.8c2.8-0.5,5.5,1.3,6,4L1283.7,1315.5z"/>
			</g>
			<g>
				<path class="st6" d="M710.4,1476.3c0.5,2.8-1.3,5.5-4,6l-53.4,10.4c-2.8,0.5-5.5-1.3-6-4l-4.9-25.1c-0.5-2.8,1.3-5.5,4-6
					l53.4-10.4c2.8-0.5,5.5,1.3,6,4L710.4,1476.3z"/>
			</g>
			<g>
				<path class="st6" d="M765.6,1465.6c0.5,2.8-1.3,5.5-4,6l-35.2,6.8c-2.8,0.5-5.5-1.3-6-4l-4.9-25.1c-0.5-2.8,1.3-5.5,4-6
					l35.2-6.8c2.8-0.5,5.5,1.3,6,4L765.6,1465.6z"/>
			</g>
			<g>
				<path class="st6" d="M820.2,1455c0.5,2.8-1.3,5.5-4,6l-35.2,6.8c-2.8,0.5-5.5-1.3-6-4l-4.9-25.1c-0.5-2.8,1.3-5.5,4-6l35.2-6.8
					c2.8-0.5,5.5,1.3,6,4L820.2,1455z"/>
			</g>
			<g>
				<path class="st6" d="M874.8,1444.4c0.5,2.8-1.3,5.5-4,6l-35.2,6.8c-2.8,0.5-5.5-1.3-6-4l-4.9-25.1c-0.5-2.8,1.3-5.5,4-6
					l35.2-6.8c2.8-0.5,5.5,1.3,6,4L874.8,1444.4z"/>
			</g>
			<g>
				<path class="st6" d="M929.5,1433.8c0.5,2.8-1.3,5.5-4,6l-35.2,6.8c-2.8,0.5-5.5-1.3-6-4l-4.9-25.1c-0.5-2.8,1.3-5.5,4-6
					l35.2-6.8c2.8-0.5,5.5,1.3,6,4L929.5,1433.8z"/>
			</g>
			<g>
				<path class="st6" d="M984.1,1423.2c0.5,2.8-1.3,5.5-4,6l-35.2,6.8c-2.8,0.5-5.5-1.3-6-4l-4.9-25.1c-0.5-2.8,1.3-5.5,4-6
					l35.2-6.8c2.8-0.5,5.5,1.3,6,4L984.1,1423.2z"/>
			</g>
			<g>
				<path class="st6" d="M1038.7,1412.6c0.5,2.8-1.3,5.5-4,6l-35.2,6.8c-2.8,0.5-5.5-1.3-6-4l-4.9-25.1c-0.5-2.8,1.3-5.5,4-6
					l35.2-6.8c2.8-0.5,5.5,1.3,6,4L1038.7,1412.6z"/>
			</g>
			<g>
				<path class="st6" d="M1093.3,1402c0.5,2.8-1.3,5.5-4,6l-35.2,6.8c-2.8,0.5-5.5-1.3-6-4l-4.9-25.1c-0.5-2.8,1.3-5.5,4-6l35.2-6.8
					c2.8-0.5,5.5,1.3,6,4L1093.3,1402z"/>
			</g>
			<g>
				<path class="st6" d="M1147.9,1391.4c0.5,2.8-1.3,5.5-4,6l-35.2,6.8c-2.8,0.5-5.5-1.3-6-4l-4.9-25.1c-0.5-2.8,1.3-5.5,4-6
					l35.2-6.8c2.8-0.5,5.5,1.3,6,4L1147.9,1391.4z"/>
			</g>
			<g>
				<path class="st6" d="M1202.6,1380.7c0.5,2.8-1.3,5.5-4,6l-35.2,6.8c-2.8,0.5-5.5-1.3-6-4l-4.9-25.1c-0.5-2.8,1.3-5.5,4-6
					l35.2-6.8c2.8-0.5,5.5,1.3,6,4L1202.6,1380.7z"/>
			</g>
			<g>
				<path class="st6" d="M1257.2,1370.1c0.5,2.8-1.3,5.5-4,6l-35.2,6.8c-2.8,0.5-5.5-1.3-6-4l-4.9-25.1c-0.5-2.8,1.3-5.5,4-6
					l35.2-6.8c2.8-0.5,5.5,1.3,6,4L1257.2,1370.1z"/>
			</g>
			<g>
				<path class="st6" d="M1311.8,1359.5c0.5,2.8-1.3,5.5-4,6l-35.2,6.8c-2.8,0.5-5.5-1.3-6-4l-4.9-25.1c-0.5-2.8,1.3-5.5,4-6
					l35.2-6.8c2.8-0.5,5.5,1.3,6,4L1311.8,1359.5z"/>
			</g>
			<g>
				<path class="st6" d="M1346.9,1271.9c-2.8,0.5-7.3,1.4-10,1.9l-35.2,6.8c-2.8,0.5-4.6,3.2-4,6l4.9,25.1c0.5,2.8,3.2,4.6,6,4
					l3.2-0.6c2.8-0.5,5.5,1.3,6,4l7.3,37.7c0.5,2.8,3.2,4.6,6,4l22-4.3c2.8-0.5,7.3-1.4,10-1.9l3.2-0.6c2.8-0.5,7.3-1.4,10-1.9
					l22-4.3c2.8-0.5,4.6-3.2,4-6l-7.3-37.7c-0.5-2.8-1.4-7.1-1.9-9.7c-0.5-2.6-1.4-7-1.9-9.7l-3.1-15.7c-0.5-2.8-3.2-4.6-6-4
					L1346.9,1271.9z"/>
			</g>
			<g>
				<path class="st6" d="M701.4,1527.5c0.5,2.8-1.3,5.5-4,6l-35.2,6.8c-2.8,0.5-5.5-1.3-6-4l-4.9-25.1c-0.5-2.8,1.3-5.5,4-6
					l35.2-6.8c2.8-0.5,5.5,1.3,6,4L701.4,1527.5z"/>
			</g>
			<g>
				<path class="st6" d="M756,1516.9c0.5,2.8-1.3,5.5-4,6l-35.2,6.8c-2.8,0.5-5.5-1.3-6-4l-4.9-25.1c-0.5-2.8,1.3-5.5,4-6l35.2-6.8
					c2.8-0.5,5.5,1.3,6,4L756,1516.9z"/>
			</g>
			<g>
				<path class="st6" d="M810.7,1506.3c0.5,2.8-1.3,5.5-4,6l-35.2,6.8c-2.8,0.5-5.5-1.3-6-4l-4.9-25.1c-0.5-2.8,1.3-5.5,4-6
					l35.2-6.8c2.8-0.5,5.5,1.3,6,4L810.7,1506.3z"/>
			</g>
			<g>
				<path class="st6" d="M865.3,1495.7c0.5,2.8-1.3,5.5-4,6l-35.2,6.8c-2.8,0.5-5.5-1.3-6-4l-4.9-25.1c-0.5-2.8,1.3-5.5,4-6
					l35.2-6.8c2.8-0.5,5.5,1.3,6,4L865.3,1495.7z"/>
			</g>
			<g>
				<path class="st6" d="M919.9,1485.1c0.5,2.8-1.3,5.5-4,6l-35.2,6.8c-2.8,0.5-5.5-1.3-6-4l-4.9-25.1c-0.5-2.8,1.3-5.5,4-6
					l35.2-6.8c2.8-0.5,5.5,1.3,6,4L919.9,1485.1z"/>
			</g>
			<g>
				<path class="st6" d="M974.5,1474.5c0.5,2.8-1.3,5.5-4,6l-35.2,6.8c-2.8,0.5-5.5-1.3-6-4l-4.9-25.1c-0.5-2.8,1.3-5.5,4-6
					l35.2-6.8c2.8-0.5,5.5,1.3,6,4L974.5,1474.5z"/>
			</g>
			<g>
				<path class="st6" d="M1029.1,1463.9c0.5,2.8-1.3,5.5-4,6l-35.2,6.8c-2.8,0.5-5.5-1.3-6-4l-4.9-25.1c-0.5-2.8,1.3-5.5,4-6
					l35.2-6.8c2.8-0.5,5.5,1.3,6,4L1029.1,1463.9z"/>
			</g>
			<g>
				<path class="st6" d="M1083.7,1453.3c0.5,2.8-1.3,5.5-4,6l-35.2,6.8c-2.8,0.5-5.5-1.3-6-4l-4.9-25.1c-0.5-2.8,1.3-5.5,4-6
					l35.2-6.8c2.8-0.5,5.5,1.3,6,4L1083.7,1453.3z"/>
			</g>
			<g>
				<path class="st6" d="M1138.4,1442.7c0.5,2.8-1.3,5.5-4,6l-35.2,6.8c-2.8,0.5-5.5-1.3-6-4l-4.9-25.1c-0.5-2.8,1.3-5.5,4-6
					l35.2-6.8c2.8-0.5,5.5,1.3,6,4L1138.4,1442.7z"/>
			</g>
			<g>
				<path class="st6" d="M1193,1432.1c0.5,2.8-1.3,5.5-4,6l-35.2,6.8c-2.8,0.5-5.5-1.3-6-4l-4.9-25.1c-0.5-2.8,1.3-5.5,4-6l35.2-6.8
					c2.8-0.5,5.5,1.3,6,4L1193,1432.1z"/>
			</g>
			<g>
				<path class="st6" d="M1247.6,1421.5c0.5,2.8-1.3,5.5-4,6l-35.2,6.8c-2.8,0.5-5.5-1.3-6-4l-4.9-25.1c-0.5-2.8,1.3-5.5,4-6
					l35.2-6.8c2.8-0.5,5.5,1.3,6,4L1247.6,1421.5z"/>
			</g>
			<g>
				<path class="st6" d="M1302.2,1410.9c0.5,2.8-1.3,5.5-4,6l-35.2,6.8c-2.8,0.5-5.5-1.3-6-4l-4.9-25.1c-0.5-2.8,1.3-5.5,4-6
					l35.2-6.8c2.8-0.5,5.5,1.3,6,4L1302.2,1410.9z"/>
			</g>
			<g>
				<path class="st6" d="M1411.5,1389.7c0.5,2.8-1.3,5.5-4,6l-89.8,17.4c-2.8,0.5-5.5-1.3-6-4l-4.9-25.1c-0.5-2.8,1.3-5.5,4-6
					l89.8-17.4c2.8-0.5,5.5,1.3,6,4L1411.5,1389.7z"/>
			</g>
			<g>
				<path class="st6" d="M710.7,1575.3c0.5,2.8-1.3,5.5-4,6l-35.2,6.8c-2.8,0.5-5.5-1.3-6-4l-4.9-25.1c-0.5-2.8,1.3-5.5,4-6
					l35.2-6.8c2.8-0.5,5.5,1.3,6,4L710.7,1575.3z"/>
			</g>
			<g>
				<path class="st6" d="M765.3,1564.6c0.5,2.8-1.3,5.5-4,6l-35.2,6.8c-2.8,0.5-5.5-1.3-6-4l-4.9-25.1c-0.5-2.8,1.3-5.5,4-6
					l35.2-6.8c2.8-0.5,5.5,1.3,6,4L765.3,1564.6z"/>
			</g>
			<g>
				<path class="st6" d="M819.9,1554c0.5,2.8-1.3,5.5-4,6l-35.2,6.8c-2.8,0.5-5.5-1.3-6-4l-4.9-25.1c-0.5-2.8,1.3-5.5,4-6l35.2-6.8
					c2.8-0.5,5.5,1.3,6,4L819.9,1554z"/>
			</g>
			<g>
				<path class="st6" d="M874.5,1543.4c0.5,2.8-1.3,5.5-4,6l-35.2,6.8c-2.8,0.5-5.5-1.3-6-4l-4.9-25.1c-0.5-2.8,1.3-5.5,4-6
					l35.2-6.8c2.8-0.5,5.5,1.3,6,4L874.5,1543.4z"/>
			</g>
			<g>
				<path class="st6" d="M928.3,1501.7c-2.8,0.5-5.9,1.1-6.9,1.3c-1,0.2-4.1,0.8-6.9,1.3l-31.4,6.1c-2.8,0.5-4.6,3.2-4,6l4.9,25.1
					c0.5,2.8,3.2,4.6,6,4l31.4-6.1c2.8-0.5,5.9-1.1,6.9-1.3c1-0.2,4.1-0.8,6.9-1.3l204.7-39.7c2.8-0.5,4.6-3.2,4-6l-4.9-25.1
					c-0.5-2.8-3.2-4.6-6-4L928.3,1501.7z"/>
			</g>
			<g>
				<path class="st6" d="M1202.2,1479.8c0.5,2.8-1.3,5.5-4,6l-35.2,6.8c-2.8,0.5-5.5-1.3-6-4l-4.9-25.1c-0.5-2.8,1.3-5.5,4-6
					l35.2-6.8c2.8-0.5,5.5,1.3,6,4L1202.2,1479.8z"/>
			</g>
			<g>
				<path class="st6" d="M1256.9,1469.2c0.5,2.8-1.3,5.5-4,6l-35.2,6.8c-2.8,0.5-5.5-1.3-6-4l-4.9-25.1c-0.5-2.8,1.3-5.5,4-6
					l35.2-6.8c2.8-0.5,5.5,1.3,6,4L1256.9,1469.2z"/>
			</g>
			<g>
				<path class="st6" d="M1311.5,1458.6c0.5,2.8-1.3,5.5-4,6l-35.2,6.8c-2.8,0.5-5.5-1.3-6-4l-4.9-25.1c-0.5-2.8,1.3-5.5,4-6
					l35.2-6.8c2.8-0.5,5.5,1.3,6,4L1311.5,1458.6z"/>
			</g>
			<g>
				<path class="st6" d="M1361.9,1426.4c0.5,2.8-1.3,5.5-4,6l-35.2,6.8c-2.8,0.5-5.5-1.3-6-4l-0.7-3.5c-0.5-2.8,1.3-5.5,4-6
					l35.2-6.8c2.8-0.5,5.5,1.3,6,4L1361.9,1426.4z"/>
			</g>
			<g>
				<path class="st6" d="M1366.1,1448c0.5,2.8-1.3,5.5-4,6l-35.2,6.8c-2.8,0.5-5.5-1.3-6-4l-0.7-3.5c-0.5-2.8,1.3-5.5,4-6l35.2-6.8
					c2.8-0.5,5.5,1.3,6,4L1366.1,1448z"/>
			</g>
			<g>
				<path class="st6" d="M1420.7,1437.4c0.5,2.8-1.3,5.5-4,6l-35.2,6.8c-2.8,0.5-5.5-1.3-6-4l-4.9-25.1c-0.5-2.8,1.3-5.5,4-6
					l35.2-6.8c2.8-0.5,5.5,1.3,6,4L1420.7,1437.4z"/>
			</g>
		</g>
	</g>
	<g class="st4">
		<defs>
			<path id="XMLID_1_" d="M1279.6,831.5H622.3v-481c0-10.6,8.6-19.3,19.3-19.3h618.9c10.6,0,19.3,8.6,19.3,19.3V831.5z"/>
		</defs>
		<use xlink:href="#XMLID_1_"  style="overflow:visible;fill:#FFFFFF;"/>
		<clipPath id="XMLID_9_">
			<use xlink:href="#XMLID_1_"  style="overflow:visible;"/>
		</clipPath>
		<rect x="559.8" y="241.4" class="st8" width="808.9" height="145.1"/>
	</g>
	<rect x="1018.8" y="419" class="st9" width="229.5" height="162.3"/>
	<rect x="926.4" y="419" class="st10" width="78.7" height="100.6"/>
	<rect x="926.4" y="531" class="st10" width="78.7" height="50.3"/>
	<rect x="682.9" y="680" class="st10" width="78.7" height="100.6"/>
	<rect x="772" y="730.3" class="st10" width="78.7" height="50.3"/>
	<rect x="889.4" y="730.3" class="st10" width="345" height="9.5"/>
	<rect x="889.4" y="750.6" class="st10" width="267.3" height="9.5"/>
	<circle class="st11" cx="655.8" cy="357.2" r="11.7"/>
	<circle class="st12" cx="688" cy="357.2" r="11.7"/>
	<circle class="st12" cx="721.4" cy="357.2" r="11.7"/>
	<g class="st4">
		<defs>
			<path id="XMLID_3_" d="M1585.3,1509.3l-67.6-4.5c-13.8-0.9-24.2-12.8-23.3-26.6l9.2-138.8c0.9-13.8,12.8-24.2,26.6-23.3l67.6,4.5
				c13.8,0.9,24.2,12.8,23.3,26.6l-9.2,138.8C1611,1499.8,1599.1,1510.2,1585.3,1509.3z"/>
		</defs>
		<use xlink:href="#XMLID_3_"  style="overflow:visible;fill:#EEEBD5;"/>
		<clipPath id="XMLID_10_">
			<use xlink:href="#XMLID_3_"  style="overflow:visible;"/>
		</clipPath>
		
			<rect x="1492.7" y="1297.5" transform="matrix(0.9978 6.608699e-02 -6.608699e-02 0.9978 92.3541 -97.8416)" class="st13" width="64.8" height="99"/>
		
			<rect x="1565.7" y="1302.4" transform="matrix(0.9978 6.608699e-02 -6.608699e-02 0.9978 92.8334 -102.6571)" class="st13" width="64.8" height="99"/>
	</g>
	<g class="st4">
		
			<ellipse transform="matrix(0.8378 -0.5461 0.5461 0.8378 -707.7739 454.212)" class="st14" cx="410.4" cy="1418.1" rx="113.3" ry="113.3"/>
		
			<ellipse transform="matrix(0.8378 -0.5461 0.5461 0.8378 -710.3546 450.4016)" class="st15" cx="402.7" cy="1420.6" rx="88.2" ry="88.2"/>
		<path class="st6" d="M321.2,1487.8l25.6-16.7c26.5,31.9,73.3,39.6,108.9,16.4c38.3-25,49.2-76.3,24.2-114.7
			c-25-38.3-76.3-49.2-114.7-24.2c-34.6,22.6-46.8,66.7-30.4,103.3l-25.9,16.9c-4.5,2.9-5.7,9-2.8,13.4l1.8,2.7
			C310.7,1489.5,316.8,1490.8,321.2,1487.8z"/>
		
			<ellipse transform="matrix(0.8378 -0.5461 0.5461 0.8378 -707.7737 454.2121)" class="st16" cx="410.4" cy="1418.1" rx="64.3" ry="64.3"/>
		<path class="st15" d="M429.4,1375.6c19.4,29.7,11,69.6-18.8,89c-9.4,6.2-19.9,9.5-30.4,10.3c20,10.6,45,10.3,65.3-2.9
			c29.7-19.4,38.1-59.2,18.8-89c-13.2-20.3-36-30.7-58.6-29C415,1358.9,423.2,1366.2,429.4,1375.6z"/>
	</g>
	<g class="st4">
		<path class="st17" d="M738.1,1749c0.9-26.7,4.2-35.7-0.8-49.4c-5-13.7-12.6-43.2-21.4-68.8c-3.8-11-13.2-51.9-23.6-85.5
			c-8-25.9-17.7-47.1-18.4-49.5c-7.6-25.4-14.8-44.1-20.4-60.8c-5.6-16.7-7.1-26.5,3.1-27.3c14.4-1.2,25.1,14.3,33,31
			c-1.2-1.2,6.3,25.9,7.3,32.7c1,6.8,17.7,47.2,17.7,47.2l8.6-4.1c-3.2-16-7-35.1-10.9-53.8c-6.8-33.1-17.5-81.6-18.6-89.7
			c-1.3-9.2,4.3-15.2,11.5-14.2c15.5,2.3,23.7,13.8,27.6,30.4c1.7,7.1,3.5,14.1,5.4,21.6c0,0.4,2,18.3,2.4,26.9
			c0.4,8.7,2.1,21.6,5,30.1c2.9,8.5,11.5,38.3,11.5,38.3l6.2-2.7c0.3-0.1-2.2-34.7-5.3-56.2c-5-34.6-13.9-89.4-14.2-97.8
			c-0.4-9.4,3.7-15.7,11.2-14.4c15.9,2.8,25.2,16,28.2,33.3c1.4,8.4,3.6,18.4,5.9,29.1c0,0,0.1,0.5,0.1,1.4c0.5,5,1.9,22,1.7,32.6
			c-0.2,12.6,8.6,60.4,8.6,60.4l7.2-1.1c-1-26.3-4.6-88.8-5.3-100c-1.5-24.1-2.5-46.4,8-47.2c10.5-0.8,19.5,8.5,23.5,27.2
			c4,18.7,4.5,36.1,8.9,65.8c3.5,23.9,3.7,25.8,8.1,52.3c2.2,13.1,6.1,28.4,9.6,41.2l0,0c1.1,4.1,4.5,23.4,5.7,35.3
			c1.2,11.9,7.4,20.2,14,20.2c6.6,0,17.4-18.4,18.8-25.5c1.4-7,5.6-20.7,5.8-21.1c5.5-10,12.2-19,22.4-23.2
			c24.3-9.9,30.2,9.6,18.3,31.5c-13.1,24.1-27.3,75.8-40.1,101.6c-12.8,25.8-41.4,35.3-47.3,45c-6,9.7,1.9,138.3,1.9,138.3
			L734,1843.5C734,1843.5,737.7,1764.1,738.1,1749z"/>
		<path class="st18" d="M876,1594.4c-6.6,0-12.9-8.3-14-20.2c-1.2-11.9-4.5-31.2-5.7-35.3l0,0c3.2,11.6,6.1,21.1,7,25
			c2.4,9.9,6.7,27.7,14.6,21.2c9.5-7.7,15-23.6,22.6-37.4c-0.1,0.4-4.4,14.1-5.8,21.1C893.4,1575.9,882.6,1594.3,876,1594.4z"/>
		<path class="st18" d="M830.3,1709.9c0,0-14.7-5.7-33.3-2.1c-18.6,3.6-30.5,6.4-30.5,6.4s12.6-10.3,31.3-12.3
			C816.1,1699.8,830.3,1709.9,830.3,1709.9z"/>
		<path class="st19" d="M920.4,1539.1c0,0,9.5-15.1,20.4-9.6c9.6,4.8-0.4,20.6-0.4,20.6L920.4,1539.1z"/>
		<path class="st19" d="M804.8,1356.5c4.7-1.5,9.4,2.6,10.9,7.2c1.6,4.7,1.8,10.3,1.8,10.3l-17.4,1.7
			C800.1,1375.8,798,1358.7,804.8,1356.5z"/>
		<path class="st19" d="M746.5,1349c4.1-2.7,8.3,0.7,11.1,4.8c2.7,4.1,4.9,11,4.9,11l-16.9,4.7
			C745.6,1369.5,740.5,1352.9,746.5,1349z"/>
		<path class="st19" d="M696.7,1371.6c4.1-2.7,8.3,0.7,11.1,4.8c2.7,4.1,4.9,11,4.9,11l-16.9,4.7
			C695.8,1392.1,690.7,1375.5,696.7,1371.6z"/>
		<path class="st19" d="M649.7,1423.8c3.2-3,7.5-0.6,10.5,2.6s6,9,6,9l-14.1,6.7C652.1,1442.1,645,1428.2,649.7,1423.8z"/>
		<g>
			<path class="st18" d="M693.7,1482.1c-1-6.8-8.5-33.8-7.3-32.7c4.3,9,7.8,18.4,10.6,25.8c4.9,12.9,21.7,50,22.9,49.9l-8.6,4.1
				C711.4,1529.3,694.7,1488.9,693.7,1482.1z"/>
			<path class="st18" d="M742.6,1476.6c-2.9-8.5-4.6-21.4-5-30.1c-0.4-8.6-2.4-26.6-2.4-26.9c2.5,9.9,5.1,20.6,7.5,33.7
				c2.5,14.1,11.4,44.5,17.7,59.1l-6.2,2.7C754.1,1514.9,745.4,1485.1,742.6,1476.6z"/>
			<path class="st18" d="M787.8,1440.4c0.2-10.6-1.3-27.6-1.7-32.6c-0.1-0.9-0.1-1.4-0.1-1.4c2.4,11.5,4.8,23.9,6.5,36.4
				c1.6,12.5,11,56.9,11.1,56.9l-7.2,1.1C796.4,1500.7,787.6,1453,787.8,1440.4z"/>
		</g>
	</g>
	<g class="st4">
		<path class="st17" d="M1328.2,1670.1c-6.6-25.8-11.8-34-9.9-48.4c1.9-14.4,2.9-44.9,6.1-71.8c1.3-11.6,1.7-53.5,4.6-88.6
			c2.2-27,7.1-49.8,7.3-52.3c1.9-26.5,4.9-46.3,6.8-63.8c1.9-17.5,1.2-27.4-8.9-26c-14.3,1.9-21.4,19.3-25.6,37.4
			c0.9-1.4-0.5,26.6-0.1,33.5c0.5,6.8-7.1,49.9-7.1,49.9l-9.2-2.1c-0.3-16.3-0.7-35.8-1-54.9c-0.5-33.8-0.5-83.4-1.2-91.6
			c-0.7-9.2-7.5-13.9-14.3-11.3c-14.7,5.6-20.2,18.6-20.4,35.6c-0.1,7.3-0.4,14.6-0.7,22.3c0,0.4,2,18.3,3.5,26.8
			c1.5,8.6,2.6,21.6,1.6,30.5c-1,8.9-3,39.9-3,39.9l-6.6-1.3c-0.3-0.1-5.3-34.4-6.9-56.1c-2.6-34.9-5.7-90.3-7.2-98.6
			c-1.7-9.3-7-14.6-14-11.6c-15,6.2-21.2,21.1-20.3,38.6c0.4,8.5,0.4,18.7,0.5,29.7c0,0,0.1,0.5,0.2,1.4c0.6,5,2.9,21.9,5.4,32.2
			c2.9,12.2,4.7,60.8,4.7,60.8l-7.3,0.4c-4.7-25.9-14.7-87.7-16.4-98.8c-3.7-23.8-7.5-45.8-17.9-44.3c-10.4,1.5-17.2,12.5-17.1,31.6
			c0.1,19.1,3.3,36.2,5.5,66.2c1.8,24.1,1.9,26,3.4,52.8c0.7,13.3,0.2,29-0.5,42.3l0,0c-0.2,4.2,0.6,23.8,2.1,35.7
			s-2.9,21.3-9.3,22.7c-6.5,1.4-21-14.3-23.9-20.9c-2.9-6.5-10-19-10.2-19.3c-7.6-8.6-16-16-26.9-17.8
			c-25.8-4.4-27.5,15.9-11.1,34.7c18,20.7,43,68.2,61,90.5c18.1,22.4,48,25.6,55.9,33.7c7.9,8.2,29.5,134.7,29.5,134.7l123.5-13.1
			C1352.7,1761.6,1331.9,1684.8,1328.2,1670.1z"/>
		<path class="st18" d="M1154.7,1539c6.5-1.4,10.8-10.9,9.3-22.7s-2.3-31.5-2.1-35.7l0,0c-0.6,12-1.4,21.9-1.5,26
			c-0.3,10.2-0.5,28.5-9.7,23.9c-10.9-5.5-19.7-19.8-30.2-31.7c0.2,0.4,7.3,12.8,10.2,19.3C1133.7,1524.7,1148.3,1540.4,1154.7,1539
			z"/>
		<path class="st18" d="M1224.2,1641.9c0,0,13.1-8.7,32.1-9.2c19-0.5,31.1-0.4,31.1-0.4s-14.5-7.4-33.2-5.3
			C1235.9,1629.1,1224.2,1641.9,1224.2,1641.9z"/>
		<path class="st19" d="M1099.4,1494.6c0,0-12.5-12.7-22-5c-8.3,6.7,4.9,20,4.9,20L1099.4,1494.6z"/>
		<path class="st19" d="M1172.9,1291.4c-4.9-0.5-8.6,4.5-9.1,9.4c-0.5,4.9,0.5,10.5,0.5,10.5l17.4-2.1
			C1181.7,1309.2,1180.1,1292.1,1172.9,1291.4z"/>
		<path class="st19" d="M1228.3,1271.4c-4.6-1.7-8,2.5-9.8,7.1c-1.8,4.6-2.4,11.8-2.4,11.8l17.5,1
			C1233.6,1291.3,1235,1274,1228.3,1271.4z"/>
		<path class="st19" d="M1281.8,1282.8c-4.6-1.7-8,2.5-9.8,7.1c-1.8,4.6-2.4,11.8-2.4,11.8l17.5,1
			C1287.1,1302.7,1288.5,1285.3,1281.8,1282.8z"/>
		<path class="st19" d="M1338.9,1323.7c-3.8-2.2-7.4,1-9.7,4.8c-2.3,3.8-3.9,10-3.9,10l15.3,3.5
			C1340.6,1342,1344.4,1327,1338.9,1323.7z"/>
		<g>
			<path class="st18" d="M1308.5,1390.1c-0.5-6.8,1-34.8,0.1-33.5c-2.2,9.7-3.6,19.6-4.8,27.5c-2,13.6-10.4,53.5-11.6,53.7l9.2,2.1
				C1301.4,1439.9,1309,1396.9,1308.5,1390.1z"/>
			<path class="st18" d="M1259.6,1395.2c1-8.9-0.1-21.9-1.6-30.5c-1.5-8.5-3.4-26.5-3.5-26.8c-0.3,10.2-0.6,21.2,0,34.5
				c0.6,14.3-1.6,45.9-4.5,61.5l6.6,1.3C1256.7,1435.2,1258.6,1404.1,1259.6,1395.2z"/>
			<path class="st18" d="M1207.6,1369.6c-2.5-10.3-4.7-27.2-5.4-32.2c-0.1-0.9-0.2-1.4-0.2-1.4c0.1,11.7,0.4,24.4,1.5,36.9
				c1.1,12.5,1.5,58,1.4,58l7.3-0.4C1212.3,1430.4,1210.6,1381.9,1207.6,1369.6z"/>
		</g>
	</g>
	<path class="st20" d="M715.7,1933.1L726,1835c0.3-2.9,2.6-5.2,5.4-5.5c20.5-2.3,99.3-10.4,129.6-0.9c2.4,0.7,4.1,2.8,4.3,5.3
		l10.3,106.1c0.4,3.7-2.7,6.9-6.4,6.8l-147.7-6.9C718,1939.7,715.3,1936.6,715.7,1933.1z"/>
	<path class="st20" d="M1230.7,1771.1c23.2-8.2,83.4-26.9,120.2-14.2c4.1,1.4,7.2,4.7,8.5,8.8l51.1,164.5
		c2.7,8.5-3.5,17.3-12.5,17.7l-154.5,6.2c-7.5,0.3-13.8-5.5-14.2-12.9l-7.8-156.6C1221.3,1778.6,1225,1773.1,1230.7,1771.1z"/>
	<path class="st21" d="M731.3,1812.1l1.7-34.7c0.1-1.7,1.2-3.2,2.8-3.7c14.5-4.5,84.2-23.9,125.3,0.9c0.5-0.2,1.8,23.3,2.4,34.3
		c0.1,2.7-2.3,4.8-5,4.1c-15.7-3.8-64.6-12.9-122.1,3.2C733.7,1816.9,731.1,1814.8,731.3,1812.1z"/>
	
		<ellipse transform="matrix(0.9806 -0.1959 0.1959 0.9806 -334.905 187.6361)" class="st21" cx="780.9" cy="1786.6" rx="40.4" ry="37.5"/>
	<g class="st4">
		<defs>
			
				<ellipse id="XMLID_6_" transform="matrix(0.9806 -0.1959 0.1959 0.9806 -334.905 187.6361)" cx="780.9" cy="1786.6" rx="36.1" ry="33.6"/>
		</defs>
		<use xlink:href="#XMLID_6_"  style="overflow:visible;fill:#999999;"/>
		<clipPath id="XMLID_11_">
			<use xlink:href="#XMLID_6_"  style="overflow:visible;"/>
		</clipPath>
		<g class="st22">
			<path class="st6" d="M799.5,1742.8c-27.6,22.3-42.6,56.2-56.6,88.8c-11-14.8-22.5-31.6-20.2-49.8c1.1-9.2,5.7-17.5,10.9-25.1
				c7.7-11.2,17.1-21.5,28.6-28.8c11.5-7.3,25.3-11.4,38.8-10.1c4.4,0.4,8.9,1.5,12.3,4.4s5,8.1,2.9,11.9"/>
		</g>
	</g>
	<path class="st23" d="M577.4,533.5c0,24.5-30.3,44.4-67.7,44.4c-10.9,0-21.1-1.7-30.2-4.7c-6.8,7.2-13,15.2-18.6,23.8
		c1.8-9.8,3.5-19.7,5.3-29.5c-14.8-8.2-24.2-20.4-24.2-34c0-24.5,30.3-44.4,67.7-44.4S577.4,509,577.4,533.5z"/>
	<path class="st23" d="M366.1,590.2c0,17.8,19.3,32.1,43.1,32.1c6.9,0,13.5-1.2,19.2-3.4c4.3,5.2,8.3,11,11.8,17.2
		c-1.1-7.1-2.2-14.2-3.4-21.4c9.4-5.9,15.4-14.7,15.4-24.6c0-17.8-19.3-32.1-43.1-32.1S366.1,572.4,366.1,590.2z"/>
	<path class="st23" d="M751.4,218.2l42.9-64.6c2.1-3.1,6.3-4,9.4-1.8l0,0c3.1,2.1,3.8,6.3,1.7,9.4l-44.6,63.7l-12.3,7.2L751.4,218.2
		z"/>
	<rect x="646" y="226.4" class="st23" width="97.1" height="5.7"/>
	<rect x="646" y="236.9" class="st23" width="118.1" height="5.7"/>
	<rect x="646" y="247.5" class="st23" width="118.1" height="5.7"/>
	<path class="st23" d="M1519.4,712.4l-17.3-49.5c-0.2-0.7-0.8-1.2-1.5-1.3l-95,33.1c-0.4,0.5-0.6,1.3-0.3,1.9l17.2,49.7
		c0.4,1,1.5,1.6,2.5,1.2l93.2-32.6C1519.2,714.5,1519.8,713.4,1519.4,712.4z M1465.5,711.1l-57.3-14.8l56.9,12.5l33.5-43.7
		L1465.5,711.1z"/>
	<path class="st23" d="M1538.6,585.2l-22-12.6v27.6l19-12.3l-46.6,32.3l-49.1-33.1l20.4,12.7l0.7-29.1l-23,14.1
		c-0.6,0.4-0.9,1-0.9,1.7l-0.3,52.6c0,1.1,0.9,2,2,2l98.8,0.3c1.1,0,2-0.9,2-2l0.2-52.4C1539.6,586.3,1539.2,585.6,1538.6,585.2z"/>
	<path class="st23" d="M1338.5,181.7c-1.4,28.5,5.4,59.8,5.4,59.8s25.1-4.5,40.4-7.8c-6.6-18-5.5-56.4-5.5-56.4
		S1355,179.8,1338.5,181.7z"/>
	<path class="st24" d="M1299.9,168.5c0.9,22.5,8.2,46.4,8.2,46.4s18.8-5.5,30.2-9.4c-6.3-13.5-8-43.7-8-43.7
		S1312.3,165.7,1299.9,168.5z"/>
	<path class="st23" d="M1462.8,554.7l-0.9,45.3l26.7,18.1l26.9-17.8v-45.6H1462.8z M1467.4,563.5h22.6v2.1h-22.6V563.5z
		 M1467.4,573.8h25v1.2h-25V573.8z M1489.8,581.2h-22.3v-1.2h22.3V581.2z M1499.6,578.1h-32.2v-1.2h32.2V578.1z M1499.6,571.9h-32.2
		v-1.2h32.2V571.9z"/>
</g>
</svg>
